<svg width="56" height="56" viewBox="0 0 56 56" fill="none" xmlns="http://www.w3.org/2000/svg">
<path fill-rule="evenodd" clip-rule="evenodd" d="M42.947 12.3478C43.7562 13.1567 44.3876 14.1257 44.8008 15.1926C45.2772 16.4585 45.5314 17.7971 45.5522 19.1494C45.6521 20.8574 45.6521 21.4107 45.6521 25.7709C45.6521 30.131 45.6289 30.6754 45.5522 32.3923C45.5254 33.7273 45.2737 35.0445 44.8043 36.2938C44.3906 37.3607 43.7591 38.3295 42.9499 39.1387C42.1408 39.9478 41.1719 40.5793 40.1051 40.9931C38.8562 41.4609 37.537 41.7138 36.2036 41.7409C34.4992 41.8391 33.9405 41.8391 29.5822 41.8391C25.2238 41.8391 24.6794 41.8158 22.9607 41.7409C21.6246 41.6969 20.3058 41.4253 19.061 40.9377C17.9938 40.5247 17.0246 39.8936 16.2151 39.0848C15.4056 38.2759 14.7738 37.3071 14.36 36.2403C13.8906 34.9892 13.6389 33.672 13.6122 32.337C13.5122 30.629 13.5122 30.0739 13.5122 25.7156C13.5122 21.3554 13.5354 20.811 13.6122 19.0941C13.6382 17.7606 13.8911 16.4413 14.36 15.1926C14.7727 14.1254 15.4039 13.1562 16.2131 12.3472C17.0224 11.5383 17.9918 10.9074 19.0592 10.4951C20.3063 10.025 21.6246 9.77153 22.9571 9.74555C24.6616 9.64917 25.2202 9.64917 29.5786 9.64917C33.937 9.64917 34.4813 9.67059 36.2 9.74555C37.5336 9.77293 38.8528 10.0264 40.1015 10.4951C41.1686 10.9079 42.1378 11.5389 42.947 12.3478ZM42.0719 35.2176C42.4277 34.2525 42.6154 33.2335 42.6269 32.2049V32.2067H42.6466C42.7233 30.5005 42.7233 30.0329 42.7233 25.6855V25.6852C42.7233 21.3358 42.7037 20.8592 42.6269 19.1619C42.6103 18.1449 42.4227 17.1379 42.0719 16.1832C41.8037 15.489 41.3933 14.8586 40.8671 14.3324C40.3409 13.8062 39.7105 13.3959 39.0164 13.1277C38.0622 12.7726 37.0539 12.5848 36.0358 12.5726C34.31 12.4744 33.8638 12.4744 29.5143 12.4744C25.1649 12.4744 24.6884 12.4959 22.9911 12.5726C21.9738 12.5868 20.9664 12.7745 20.0123 13.1277C18.6041 13.6667 17.4886 14.775 16.9443 16.1832C16.5885 17.1477 16.4008 18.1661 16.3892 19.1941C16.2946 20.9235 16.2946 21.3679 16.2946 25.7173V25.7173C16.2946 30.065 16.3125 30.5433 16.3892 32.2388C16.4059 33.2559 16.5935 34.2628 16.9443 35.2176C17.2135 35.913 17.6257 36.5441 18.1542 37.0701C18.6827 37.5961 19.3157 38.0054 20.0123 38.2713C20.9659 38.6262 21.9736 38.8139 22.9911 38.8264C24.7187 38.9245 25.1631 38.9245 29.5143 38.9245C33.862 38.9245 34.3403 38.9049 36.0358 38.8264C37.0538 38.8132 38.0619 38.6255 39.0164 38.2713C39.7106 38.0037 40.3411 37.5937 40.8673 37.0678C41.3935 36.5419 41.8039 35.9116 42.0719 35.2176ZM38.1491 19.0725C39.2117 19.0725 40.0731 18.2111 40.0731 17.1486C40.0731 16.086 39.2117 15.2246 38.1491 15.2246C37.0865 15.2246 36.2251 16.086 36.2251 17.1486C36.2251 18.2111 37.0865 19.0725 38.1491 19.0725ZM29.5698 17.4522C27.3811 17.4522 25.282 18.3216 23.7343 19.8693C22.1866 21.417 21.3171 23.5161 21.3171 25.7049C21.3171 27.8936 22.1866 29.9927 23.7343 31.5404C25.282 33.0881 27.3811 33.9576 29.5698 33.9576C31.7586 33.9576 33.8577 33.0881 35.4054 31.5404C36.9531 29.9927 37.8225 27.8936 37.8225 25.7049C37.8225 23.5161 36.9531 21.417 35.4054 19.8693C33.8577 18.3216 31.7586 17.4522 29.5698 17.4522ZM29.5698 31.0645C28.1479 31.0645 26.7842 30.4996 25.7787 29.4942C24.7733 28.4887 24.2084 27.125 24.2084 25.7031C24.2084 24.2812 24.7733 22.9175 25.7787 21.912C26.7842 20.9065 28.1479 20.3417 29.5698 20.3417C30.9918 20.3417 32.3555 20.9065 33.3609 21.912C34.3664 22.9175 34.9312 24.2812 34.9312 25.7031C34.9312 27.125 34.3664 28.4887 33.3609 29.4942C32.3555 30.4996 30.9918 31.0645 29.5698 31.0645Z" fill="url(#paint0_linear_109_425)"/>
<g filter="url(#filter0_bii_109_425)">
<circle cx="28" cy="28" r="28" fill="#2D303D" fill-opacity="0.2"/>
</g>
<path fill-rule="evenodd" clip-rule="evenodd" d="M37.4463 19.1602C37.9803 19.694 38.397 20.3333 38.6696 21.0374C38.984 21.8727 39.1517 22.756 39.1654 23.6484C39.2314 24.7755 39.2314 25.1406 39.2314 28.0178C39.2314 30.8949 39.2161 31.2541 39.1654 32.3871C39.1478 33.2681 38.9817 34.1372 38.672 34.9616C38.3989 35.6656 37.9822 36.305 37.4483 36.8389C36.9144 37.3728 36.275 37.7895 35.571 38.0626C34.7469 38.3713 33.8764 38.5381 32.9965 38.556C31.8718 38.6208 31.5032 38.6208 28.6272 38.6208C25.7512 38.6208 25.392 38.6055 24.2578 38.556C23.3761 38.527 22.5059 38.3478 21.6845 38.026C20.9803 37.7535 20.3407 37.337 19.8065 36.8033C19.2724 36.2696 18.8555 35.6303 18.5824 34.9263C18.2726 34.1007 18.1066 33.2315 18.0889 32.3506C18.0229 31.2235 18.0229 30.8573 18.0229 27.9813C18.0229 25.1041 18.0383 24.7449 18.0889 23.6119C18.1061 22.732 18.273 21.8614 18.5824 21.0374C18.8547 20.3332 19.2712 19.6936 19.8052 19.1598C20.3393 18.626 20.979 18.2097 21.6833 17.9376C22.5063 17.6274 23.3762 17.4601 24.2555 17.443C25.3802 17.3794 25.7488 17.3794 28.6248 17.3794C31.5008 17.3794 31.86 17.3935 32.9942 17.443C33.8741 17.4611 34.7446 17.6283 35.5687 17.9376C36.2728 18.21 36.9124 18.6264 37.4463 19.1602ZM36.8689 34.2514C37.1037 33.6146 37.2275 32.9422 37.2351 32.2635V32.2646H37.2481C37.2987 31.1388 37.2987 30.8302 37.2987 27.9616V27.9612C37.2987 25.0911 37.2858 24.7767 37.2351 23.6567C37.2242 22.9855 37.1003 22.3211 36.8689 21.691C36.6919 21.233 36.4211 20.817 36.0739 20.4698C35.7266 20.1225 35.3107 19.8518 34.8526 19.6748C34.2229 19.4405 33.5576 19.3166 32.8858 19.3085C31.7469 19.2437 31.4525 19.2437 28.5824 19.2437C25.7123 19.2437 25.3978 19.2579 24.2778 19.3085C23.6066 19.3179 22.9418 19.4418 22.3122 19.6748C21.383 20.0304 20.6469 20.7618 20.2877 21.691C20.0529 22.3275 19.9291 22.9995 19.9214 23.6779C19.859 24.8191 19.859 25.1123 19.859 27.9824C19.859 30.8514 19.8708 31.167 19.9214 32.2858C19.9324 32.9569 20.0562 33.6214 20.2877 34.2514C20.4654 34.7103 20.7373 35.1268 21.0861 35.4739C21.4348 35.821 21.8525 36.091 22.3122 36.2665C22.9415 36.5007 23.6064 36.6246 24.2778 36.6328C25.4179 36.6976 25.7111 36.6976 28.5824 36.6976C31.4513 36.6976 31.767 36.6846 32.8858 36.6328C33.5575 36.6241 34.2228 36.5002 34.8526 36.2665C35.3107 36.0899 35.7267 35.8194 36.074 35.4724C36.4212 35.1253 36.692 34.7094 36.8689 34.2514ZM34.2803 23.5978C34.9814 23.5978 35.5499 23.0294 35.5499 22.3282C35.5499 21.6271 34.9814 21.0587 34.2803 21.0587C33.5791 21.0587 33.0107 21.6271 33.0107 22.3282C33.0107 23.0294 33.5791 23.5978 34.2803 23.5978ZM28.6189 22.5285C27.1746 22.5285 25.7894 23.1022 24.7682 24.1235C23.7469 25.1448 23.1731 26.5299 23.1731 27.9742C23.1731 29.4186 23.7469 30.8037 24.7682 31.825C25.7894 32.8463 27.1746 33.42 28.6189 33.42C30.0632 33.42 31.4484 32.8463 32.4697 31.825C33.491 30.8037 34.0647 29.4186 34.0647 27.9742C34.0647 26.5299 33.491 25.1448 32.4697 24.1235C31.4484 23.1022 30.0632 22.5285 28.6189 22.5285ZM28.6189 31.5109C27.6806 31.5109 26.7807 31.1382 26.1173 30.4747C25.4538 29.8112 25.081 28.9114 25.081 27.9731C25.081 27.0348 25.4538 26.1349 26.1173 25.4714C26.7807 24.8079 27.6806 24.4352 28.6189 24.4352C29.5572 24.4352 30.4571 24.8079 31.1206 25.4714C31.7841 26.1349 32.1568 27.0348 32.1568 27.9731C32.1568 28.9114 31.7841 29.8112 31.1206 30.4747C30.4571 31.1382 29.5572 31.5109 28.6189 31.5109Z" fill="url(#paint1_linear_109_425)"/>
<defs>
<filter id="filter0_bii_109_425" x="-30" y="-30" width="116" height="116" filterUnits="userSpaceOnUse" color-interpolation-filters="sRGB">
<feFlood flood-opacity="0" result="BackgroundImageFix"/>
<feGaussianBlur in="BackgroundImage" stdDeviation="15"/>
<feComposite in2="SourceAlpha" operator="in" result="effect1_backgroundBlur_109_425"/>
<feBlend mode="normal" in="SourceGraphic" in2="effect1_backgroundBlur_109_425" result="shape"/>
<feColorMatrix in="SourceAlpha" type="matrix" values="0 0 0 0 0 0 0 0 0 0 0 0 0 0 0 0 0 0 127 0" result="hardAlpha"/>
<feOffset dy="2"/>
<feGaussianBlur stdDeviation="2"/>
<feComposite in2="hardAlpha" operator="arithmetic" k2="-1" k3="1"/>
<feColorMatrix type="matrix" values="0 0 0 0 1 0 0 0 0 1 0 0 0 0 1 0 0 0 0.1 0"/>
<feBlend mode="normal" in2="shape" result="effect2_innerShadow_109_425"/>
<feColorMatrix in="SourceAlpha" type="matrix" values="0 0 0 0 0 0 0 0 0 0 0 0 0 0 0 0 0 0 127 0" result="hardAlpha"/>
<feOffset dy="-5"/>
<feGaussianBlur stdDeviation="6"/>
<feComposite in2="hardAlpha" operator="arithmetic" k2="-1" k3="1"/>
<feColorMatrix type="matrix" values="0 0 0 0 0.564706 0 0 0 0 0.054902 0 0 0 0 0.690196 0 0 0 0.35 0"/>
<feBlend mode="normal" in2="effect2_innerShadow_109_425" result="effect3_innerShadow_109_425"/>
</filter>
<linearGradient id="paint0_linear_109_425" x1="40.4056" y1="11.1432" x2="16.1277" y2="39.1577" gradientUnits="userSpaceOnUse">
<stop offset="0.17301" stop-color="#4967D5"/>
<stop offset="0.688933" stop-color="#DB2E7D"/>
<stop offset="1" stop-color="#FFAF00"/>
</linearGradient>
<linearGradient id="paint1_linear_109_425" x1="35.7693" y1="18.3653" x2="19.7489" y2="36.8514" gradientUnits="userSpaceOnUse">
<stop offset="0.17301" stop-color="#4967D5"/>
<stop offset="0.688933" stop-color="#DB2E7D"/>
<stop offset="1" stop-color="#FFAF00"/>
</linearGradient>
</defs>
</svg>
