<svg width="18" height="18" viewBox="0 0 18 18" fill="none" xmlns="http://www.w3.org/2000/svg">
<path fill-rule="evenodd" clip-rule="evenodd" d="M1.63088 8.6779C1.63088 5.03937 5.03097 2.25 9.0119 2.25C12.9928 2.25 16.3929 5.03937 16.3929 8.6779C16.3929 12.3164 12.9928 15.1058 9.0119 15.1058C8.12917 15.1058 7.28067 14.9709 6.49319 14.7223C5.56436 15.5892 4.21481 16.0059 2.56394 16.0707C1.89144 16.0971 1.40605 15.3977 1.68764 14.7716C2.08711 13.8771 2.60326 12.8517 2.66447 11.9573C2.01079 11.0054 1.63088 9.88205 1.63088 8.6779ZM9.0119 3.53571C5.55007 3.53571 2.9166 5.92644 2.9166 8.6779C2.9166 9.66594 3.24744 10.5929 3.83065 11.3783C3.91295 11.4891 3.95738 11.6235 3.95738 11.7615C3.95738 12.8118 3.53871 13.8028 3.1124 14.7432C4.43415 14.6028 5.30127 14.1796 5.82413 13.5643C5.99974 13.3576 6.28614 13.2834 6.54002 13.3788C7.29358 13.6618 8.1295 13.8201 9.0119 13.8201C12.4737 13.8201 15.1072 11.4293 15.1072 8.6779C15.1072 5.92644 12.4737 3.53571 9.0119 3.53571Z" fill="white"/>
</svg>
