<svg width="18" height="19" viewBox="0 0 18 19" fill="none" xmlns="http://www.w3.org/2000/svg">
<path d="M16.35 1.03564C16.2 1.11064 15.975 1.11064 15.825 1.18564C11.1 2.83564 6.37501 4.48564 1.65001 6.13564C1.20001 6.28564 0.825 6.43564 0.75 6.96064C0.75 7.48564 1.2 7.63564 1.575 7.86064C3.3 8.61064 5.10001 9.43564 6.90001 10.1856C7.42501 10.4106 7.725 10.7106 7.95 11.2356C8.7 13.0356 9.525 14.8356 10.35 16.6356C10.5 17.0106 10.725 17.4606 11.25 17.4606C11.775 17.4606 11.925 17.0106 12.075 16.5606C12.9 14.2356 13.725 11.9106 14.55 9.58564C15.45 7.11064 16.275 4.63564 17.1 2.16064C17.325 1.56064 17.025 1.03564 16.35 1.03564ZM7.725 8.98564C6.375 8.38564 5.10001 7.78565 3.52501 7.11064C6.90001 5.91065 10.125 4.78564 13.275 3.66064C13.275 3.73564 13.35 3.73564 13.35 3.81064C11.7 5.46064 9.975 7.18564 8.325 8.83564C8.1 9.06064 7.95 9.13564 7.725 8.98564ZM11.1 14.7606C10.425 13.2606 9.90001 11.9106 9.30001 10.6356C9.15001 10.4106 9.15 10.1856 9.375 9.96064C11.1 8.31064 12.75 6.58564 14.55 5.01064C13.425 8.16064 12.3 11.3856 11.1 14.7606Z" fill="white"/>
</svg>
