<svg width="56" height="56" viewBox="0 0 56 56" fill="none" xmlns="http://www.w3.org/2000/svg">
<path d="M45.0575 16.8002C43.8029 17.355 42.4552 17.7299 41.0384 17.8993C42.5003 17.0263 43.594 15.6523 44.1154 14.0337C42.7419 14.8479 41.2387 15.421 39.6711 15.7281C38.617 14.6048 37.2207 13.8602 35.6991 13.61C34.1775 13.3599 32.6157 13.618 31.2562 14.3445C29.8967 15.0709 28.8155 16.225 28.1805 17.6275C27.5455 19.03 27.3923 20.6025 27.7446 22.1009C24.9615 21.9614 22.239 21.2395 19.7536 19.982C17.2682 18.7244 15.0755 16.9594 13.3179 14.8014C12.7169 15.8361 12.3713 17.0356 12.3713 18.3132C12.3707 19.4633 12.6545 20.5958 13.1975 21.6102C13.7406 22.6245 14.5261 23.4895 15.4845 24.1282C14.373 24.0929 13.2862 23.7932 12.3143 23.254V23.3439C12.3141 24.957 12.8732 26.5204 13.8966 27.7689C14.92 29.0174 16.3447 29.8741 17.929 30.1936C16.8979 30.472 15.817 30.5131 14.7678 30.3135C15.2148 31.7015 16.0854 32.9152 17.2579 33.7847C18.4304 34.6543 19.846 35.1361 21.3065 35.1628C18.8272 37.1053 15.7652 38.1589 12.6132 38.1543C12.0549 38.1544 11.497 38.1219 10.9425 38.0568C14.142 40.1099 17.8664 41.1995 21.6701 41.1952C34.5462 41.1952 41.5853 30.5519 41.5853 21.3212C41.5853 21.0213 41.5777 20.7184 41.5642 20.4185C42.9334 19.4303 44.1153 18.2066 45.0544 16.8047L45.0575 16.8002V16.8002Z" fill="url(#paint0_linear_109_415)"/>
<g filter="url(#filter0_bii_109_415)">
<circle cx="28" cy="28" r="28" fill="#2D303D" fill-opacity="0.2"/>
</g>
<path d="M42.4827 19.899C41.5122 20.3248 40.4697 20.6125 39.3736 20.7425C40.5045 20.0725 41.3506 19.0181 41.754 17.7759C40.6915 18.4007 39.5286 18.8405 38.3159 19.0762C37.5005 18.2141 36.4203 17.6427 35.2432 17.4507C34.0662 17.2587 32.858 17.4569 31.8063 18.0144C30.7546 18.5719 29.9182 19.4575 29.427 20.5339C28.9358 21.6102 28.8172 22.8171 29.0897 23.967C26.9368 23.8599 24.8307 23.3059 22.908 22.3408C20.9854 21.3757 19.2892 20.0212 17.9295 18.365C17.4646 19.1591 17.1973 20.0797 17.1973 21.0601C17.1967 21.9428 17.4163 22.8119 17.8364 23.5903C18.2565 24.3688 18.8642 25.0326 19.6055 25.5228C18.7457 25.4957 17.9049 25.2657 17.1531 24.8519V24.9209C17.153 26.1589 17.5855 27.3587 18.3772 28.3168C19.1689 29.275 20.271 29.9324 21.4965 30.1776C20.699 30.3913 19.8628 30.4228 19.0511 30.2697C19.3969 31.3348 20.0704 32.2663 20.9774 32.9336C21.8844 33.6009 22.9795 33.9707 24.1094 33.9912C22.1914 35.482 19.8227 36.2906 17.3844 36.287C16.9525 36.2871 16.5209 36.2622 16.0919 36.2122C18.567 37.7878 21.4481 38.624 24.3906 38.6208C34.3514 38.6208 39.7967 30.4527 39.7967 23.3686C39.7967 23.1384 39.7909 22.906 39.7804 22.6758C40.8396 21.9174 41.7539 20.9783 42.4804 19.9025L42.4827 19.899V19.899Z" fill="url(#paint1_linear_109_415)"/>
<defs>
<filter id="filter0_bii_109_415" x="-30" y="-30" width="116" height="116" filterUnits="userSpaceOnUse" color-interpolation-filters="sRGB">
<feFlood flood-opacity="0" result="BackgroundImageFix"/>
<feGaussianBlur in="BackgroundImage" stdDeviation="15"/>
<feComposite in2="SourceAlpha" operator="in" result="effect1_backgroundBlur_109_415"/>
<feBlend mode="normal" in="SourceGraphic" in2="effect1_backgroundBlur_109_415" result="shape"/>
<feColorMatrix in="SourceAlpha" type="matrix" values="0 0 0 0 0 0 0 0 0 0 0 0 0 0 0 0 0 0 127 0" result="hardAlpha"/>
<feOffset dy="2"/>
<feGaussianBlur stdDeviation="2"/>
<feComposite in2="hardAlpha" operator="arithmetic" k2="-1" k3="1"/>
<feColorMatrix type="matrix" values="0 0 0 0 1 0 0 0 0 1 0 0 0 0 1 0 0 0 0.1 0"/>
<feBlend mode="normal" in2="shape" result="effect2_innerShadow_109_415"/>
<feColorMatrix in="SourceAlpha" type="matrix" values="0 0 0 0 0 0 0 0 0 0 0 0 0 0 0 0 0 0 127 0" result="hardAlpha"/>
<feOffset dy="-5"/>
<feGaussianBlur stdDeviation="6"/>
<feComposite in2="hardAlpha" operator="arithmetic" k2="-1" k3="1"/>
<feColorMatrix type="matrix" values="0 0 0 0 0.113725 0 0 0 0 0.631373 0 0 0 0 0.94902 0 0 0 0.35 0"/>
<feBlend mode="normal" in2="effect2_innerShadow_109_415" result="effect3_innerShadow_109_415"/>
</filter>
<linearGradient id="paint0_linear_109_415" x1="12.6066" y1="15.6139" x2="31.9127" y2="36.8485" gradientUnits="userSpaceOnUse">
<stop stop-color="#009EFF"/>
<stop offset="1" stop-color="#00FAFA"/>
</linearGradient>
<linearGradient id="paint1_linear_109_415" x1="17.3793" y1="18.9886" x2="32.1839" y2="35.4024" gradientUnits="userSpaceOnUse">
<stop stop-color="#009EFF"/>
<stop offset="1" stop-color="#00FAFA"/>
</linearGradient>
</defs>
</svg>
