<svg width="13" height="15" viewBox="0 0 13 15" fill="none" xmlns="http://www.w3.org/2000/svg">
<path d="M8.25001 4.46426C8.25001 3.22099 7.24327 2.21426 6.00001 2.21426C4.75675 2.21426 3.75001 3.22099 3.75001 4.46426C3.75001 5.70752 4.75675 6.71426 6.00001 6.71426C7.24327 6.71426 8.25001 5.70752 8.25001 4.46426ZM9.53572 4.46426C9.53572 6.4176 7.95335 7.99997 6.00001 7.99997C4.04667 7.99997 2.46429 6.4176 2.46429 4.46426C2.46429 2.51091 4.04667 0.928543 6.00001 0.928543C7.95335 0.928543 9.53572 2.51091 9.53572 4.46426ZM1.50001 12.2704C1.50001 12.8768 1.4485 12.8214 1.79308 12.8214H10.5284C10.8729 12.8214 10.8214 12.8768 10.8214 12.2704C10.8214 10.7994 8.69742 9.92854 6.16072 9.92854C3.62402 9.92854 1.50001 10.7994 1.50001 12.2704ZM0.214294 12.2704C0.214294 9.77595 2.97789 8.64283 6.16072 8.64283C9.34356 8.64283 12.1072 9.77595 12.1072 12.2704C12.1072 13.5667 11.605 14.1071 10.5284 14.1071H1.79308C0.716436 14.1071 0.214294 13.5667 0.214294 12.2704Z" fill="white"/>
</svg>
